<?xml version="1.0" encoding="iso-8859-1"?>
<!-- Generator: Adobe Illustrator 19.0.0, SVG Export Plug-In . SVG Version: 6.00 Build 0)  -->
<svg version="1.1" id="Capa_1" xmlns="http://www.w3.org/2000/svg" xmlns:xlink="http://www.w3.org/1999/xlink" x="0px" y="0px"
	 viewBox="0 0 512 512" style="enable-background:new 0 0 512 512;" xml:space="preserve">
<circle style="fill:#FFD93B;" cx="256" cy="256" r="256"/>
<path style="fill:#F4C534;" d="M512,256c0,141.44-114.64,256-256,256c-80.48,0-152.32-37.12-199.28-95.28
	c43.92,35.52,99.84,56.72,160.72,56.72c141.36,0,256-114.56,256-256c0-60.88-21.2-116.8-56.72-160.72
	C474.8,103.68,512,175.52,512,256z"/>
<path style="fill:#3E4347;" d="M336.576,404.16c12.48,3.232,24.832-6.16,24.336-19.04C358.8,330.208,313.504,284.368,256,284.368
	c-57.616,0-102.896,45.968-104.912,100.928c-0.464,12.816,11.776,22.24,24.192,19.056
	C230.416,390.272,284.144,390.56,336.576,404.16z"/>
<path style="fill:#E24B4B;" d="M314.88,399.36c0.576-2.656,0.928-5.392,0.928-8.24c0-21.424-17.344-38.768-38.688-38.768
	c-10.592,0-20.096,4.16-26.992,10.976c-4.704-1.968-9.808-3.056-15.232-3.056c-21.344,0-38.688,17.344-38.688,38.688
	c0,0.24,0.064,0.464,0.08,0.704C236.544,392.016,276.064,392.064,314.88,399.36z"/>
<path style="fill:#65B1EF;" d="M449.936,350c0-18.24-33.024-74.304-33.024-74.304S383.888,331.76,383.888,350
	s14.784,33.024,33.024,33.024S449.936,368.24,449.936,350z"/>
<g>
	<path style="fill:#3E4347;" d="M420.432,271.312l-28.592-31.184c-32.88-35.744-92.016-36.784-92.672-36.784l-16.24-0.128
		l11.952-11.056c15.2-14.288,31.328-19.888,47.568-16.64c36,7.024,59.136,55.36,60.048,57.44L420.432,271.312z"/>
	<path style="fill:#3E4347;" d="M276.032,47.088c65.568,73.744,85.584,77.392,108.16,97.6c-21.824-0.032-49.824-9.904-71.52-29.488
		C285.904,89.984,275.792,63.472,276.032,47.088z"/>
	<path style="fill:#3E4347;" d="M89.872,271.312l28.592-31.184c32.88-35.744,92.016-36.784,92.672-36.784l16.24-0.128
		l-11.952-11.056c-15.2-14.288-31.328-19.888-47.568-16.64c-36,7.024-59.136,55.36-60.048,57.44L89.872,271.312z"/>
	<path style="fill:#3E4347;" d="M234.272,47.088c-65.568,73.744-85.584,77.392-108.16,97.6c21.824-0.032,49.824-9.904,71.52-29.488
		C224.416,89.984,234.512,63.472,234.272,47.088z"/>
</g>
<g style="opacity:0.2;">
	<path style="fill:#FFFFFF;" d="M434.736,364.736c-4.624,5.504-11.36,7.76-14.688,4.736c-3.488-2.864-2.4-9.744,2.368-15.264
		c4.64-5.648,11.216-7.76,14.688-4.736C440.592,352.352,439.504,359.232,434.736,364.736z"/>
</g>
<g>
</g>
<g>
</g>
<g>
</g>
<g>
</g>
<g>
</g>
<g>
</g>
<g>
</g>
<g>
</g>
<g>
</g>
<g>
</g>
<g>
</g>
<g>
</g>
<g>
</g>
<g>
</g>
<g>
</g>
</svg>
