<?xml version="1.0" encoding="iso-8859-1"?>
<!-- Generator: Adobe Illustrator 19.0.0, SVG Export Plug-In . SVG Version: 6.00 Build 0)  -->
<svg version="1.1" id="Capa_1" xmlns="http://www.w3.org/2000/svg" xmlns:xlink="http://www.w3.org/1999/xlink" x="0px" y="0px"
	 viewBox="0 0 512 512" style="enable-background:new 0 0 512 512;" xml:space="preserve">
<circle style="fill:#FFD93B;" cx="256" cy="256" r="256"/>
<path style="fill:#3E4347;" d="M416.992,337.968c-26.432,62.896-88.544,107.088-161.008,107.088
	c-72.48,0-134.432-44.192-160.864-107.088c-5.408-12.672,4.176-26.576,18.08-25.808c95.024,6.032,190.224,6.032,285.552,0
	C412.656,311.392,422.24,325.296,416.992,337.968z"/>
<path style="fill:#F4C534;" d="M512,256c0,141.44-114.64,256-256,256c-80.48,0-152.32-37.12-199.28-95.28
	c43.92,35.52,99.84,56.72,160.72,56.72c141.36,0,256-114.56,256-256c0-60.88-21.2-116.8-56.72-160.72
	C474.8,103.68,512,175.52,512,256z"/>
<ellipse style="fill:#FFFFFF;" cx="150.464" cy="185.52" rx="92.96" ry="93.04"/>
<path style="fill:#3E4347;" d="M217.024,179.632c0,26.08-21.12,47.2-47.2,47.04c-25.92,0-47.04-20.96-47.04-47.04
	c0-25.92,21.12-47.04,47.2-47.04C195.904,132.608,217.024,153.712,217.024,179.632z"/>
<g>
	<path style="fill:#FFFFFF;" d="M197.024,170.672c-3.2,3.36-9.92,1.76-14.88-3.36c-4.96-4.96-6.56-11.52-3.36-14.88
		c3.36-3.2,9.92-1.6,14.88,3.36C198.784,160.752,200.384,167.472,197.024,170.672z"/>
	<ellipse style="fill:#FFFFFF;" cx="361.536" cy="185.52" rx="92.96" ry="93.04"/>
</g>
<path style="fill:#3E4347;" d="M290.368,179.632c0,26.08,21.12,47.2,47.2,47.04c25.92,0,47.04-20.96,47.04-47.04
	c0-25.92-21.12-47.04-47.2-47.04C311.488,132.608,290.368,153.712,290.368,179.632z"/>
<g>
	<path style="fill:#FFFFFF;" d="M310.368,170.672c3.2,3.36,9.92,1.76,14.88-3.36c4.96-4.96,6.56-11.52,3.36-14.88
		c-3.36-3.2-9.92-1.6-14.88,3.36C308.608,160.752,307.008,167.472,310.368,170.672z"/>
	<path style="fill:#FFFFFF;" d="M113.184,312.16c-1.12-0.064-2.16,0.112-3.216,0.24c29.712,40.224,83.904,42.448,146.032,42.448
		s116.32-2.224,146.032-42.448c-1.088-0.128-2.144-0.304-3.28-0.24C303.408,318.192,208.224,318.192,113.184,312.16z"/>
</g>
<path style="fill:#E24B4B;" d="M255.968,445.056c26.608,0,51.808-6,74.368-16.656c-1.104-18.576-8.624-35.424-21.008-47.968
	c-9.904-9.872-24.992-13.568-38.128-8.736c-11.952,4.288-24.976,6.496-39.072,6.64c-23.968,0-44.912,17.568-49.248,41.072
	c-0.544,2.976-0.672,6.08-0.832,9.184C204.48,439.104,229.504,445.056,255.968,445.056z"/>
<g>
</g>
<g>
</g>
<g>
</g>
<g>
</g>
<g>
</g>
<g>
</g>
<g>
</g>
<g>
</g>
<g>
</g>
<g>
</g>
<g>
</g>
<g>
</g>
<g>
</g>
<g>
</g>
<g>
</g>
</svg>
